<svg width="24" height="24" viewBox="0 0 24 24" fill="none" xmlns="http://www.w3.org/2000/svg">
<path fill-rule="evenodd" clip-rule="evenodd" d="M6.06641 5.27344H6.49219C6.49219 5.30273 6.49609 5.33203 6.50391 5.36133L6.9707 7.13672C7.10352 7.64453 7.33008 8.12305 7.66992 8.46094C7.98047 8.77148 8.37891 8.96484 8.87695 8.96484H10.7441V9.96289C10.7441 10.1211 10.873 10.25 11.0293 10.25H13.1973C13.3555 10.25 13.4824 10.1211 13.4824 9.96484V8.96484H15.4395C15.9434 8.96484 16.3555 8.76758 16.6738 8.44922C17.0137 8.10937 17.2383 7.63086 17.3477 7.11914L17.7207 5.36523C17.7285 5.33594 17.7324 5.30469 17.7324 5.27344H17.9336C18.957 5.27344 19.7949 6.11133 19.7949 7.13477V20.6152C19.7949 21.6328 18.9668 22.4668 17.9531 22.4766V23.2129C17.9531 23.6465 17.5996 24 17.166 24C16.7324 24 16.3789 23.6465 16.3789 23.2129V22.4766H7.62109V23.2129C7.62109 23.6465 7.26758 24 6.83398 24C6.40039 24 6.04688 23.6465 6.04688 23.2129V22.4766C5.03125 22.4668 4.20508 21.6328 4.20508 20.6152V7.13477C4.20508 6.11133 5.04297 5.27344 6.06641 5.27344ZM7.44141 19.6113C7.25195 19.6113 7.09766 19.457 7.09766 19.2676C7.09766 19.0781 7.25195 18.9238 7.44141 18.9238H16.6094C16.7988 18.9238 16.9531 19.0781 16.9531 19.2676C16.9531 19.457 16.7988 19.6113 16.6094 19.6113H7.44141ZM7.44141 16.2832C7.25195 16.2832 7.09766 16.1289 7.09766 15.9395C7.09766 15.75 7.25195 15.5957 7.44141 15.5957H16.6094C16.7988 15.5957 16.9531 15.75 16.9531 15.9395C16.9531 16.1289 16.7988 16.2832 16.6094 16.2832H7.44141ZM7.44141 12.9551C7.25195 12.9551 7.09766 12.8008 7.09766 12.6113C7.09766 12.4219 7.25195 12.2676 7.44141 12.2676H16.6094C16.7988 12.2676 16.9531 12.4219 16.9531 12.6113C16.9531 12.8008 16.7988 12.9551 16.6094 12.9551H7.44141ZM16.9629 5.61914H7.28125L7.63477 6.96094C7.74023 7.35937 7.9082 7.72656 8.15625 7.97266C8.3418 8.1582 8.58008 8.27539 8.875 8.27539H15.4395C15.7441 8.27539 15.9941 8.1543 16.1875 7.96094C16.4297 7.71875 16.5937 7.36328 16.6758 6.97656L16.9629 5.61914ZM7.30469 0H16.7656C16.875 0 16.9648 0.0898437 16.9648 0.199219V1.48047C16.9648 1.58984 16.875 1.67969 16.7656 1.67969H15.3437V4.89844H14.5078V1.67773H9.65234V4.89648H8.81641V1.67773H7.30469C7.19531 1.67773 7.10547 1.58789 7.10547 1.47852V0.199219C7.10547 0.0898437 7.19531 0 7.30469 0Z" fill="#BCBDBD"/>
</svg>
