<svg width="24" height="24" viewBox="0 0 24 24" fill="none" xmlns="http://www.w3.org/2000/svg">
<path d="M18.23 2H5.77C4.77013 2 3.81122 2.3972 3.10421 3.10421C2.3972 3.81122 2 4.77013 2 5.77V18.23C2 19.2299 2.3972 20.1888 3.10421 20.8958C3.81122 21.6028 4.77013 22 5.77 22H18.23C19.2299 22 20.1888 21.6028 20.8958 20.8958C21.6028 20.1888 22 19.2299 22 18.23V5.77C22 4.77013 21.6028 3.81122 20.8958 3.10421C20.1888 2.3972 19.2299 2 18.23 2ZM20 18.23C20 18.6994 19.8135 19.1496 19.4816 19.4816C19.1496 19.8135 18.6994 20 18.23 20H5.77C5.30057 20 4.85036 19.8135 4.51842 19.4816C4.18648 19.1496 4 18.6994 4 18.23V5.77C4 5.30057 4.18648 4.85036 4.51842 4.51842C4.85036 4.18648 5.30057 4 5.77 4H18.23C18.6994 4 19.1496 4.18648 19.4816 4.51842C19.8135 4.85036 20 5.30057 20 5.77V18.23Z" fill="#BCBDBD"/>
<path d="M8 11H7C6.73478 11 6.48043 11.1054 6.29289 11.2929C6.10536 11.4804 6 11.7348 6 12C6 12.2652 6.10536 12.5196 6.29289 12.7071C6.48043 12.8946 6.73478 13 7 13H8C8.26522 13 8.51957 12.8946 8.70711 12.7071C8.89464 12.5196 9 12.2652 9 12C9 11.7348 8.89464 11.4804 8.70711 11.2929C8.51957 11.1054 8.26522 11 8 11Z" fill="#BCBDBD"/>
<path d="M8 14H7C6.73478 14 6.48043 14.1054 6.29289 14.2929C6.10536 14.4804 6 14.7348 6 15C6 15.2652 6.10536 15.5196 6.29289 15.7071C6.48043 15.8946 6.73478 16 7 16H8C8.26522 16 8.51957 15.8946 8.70711 15.7071C8.89464 15.5196 9 15.2652 9 15C9 14.7348 8.89464 14.4804 8.70711 14.2929C8.51957 14.1054 8.26522 14 8 14Z" fill="#BCBDBD"/>
<path d="M13 11H11C10.7348 11 10.4804 11.1054 10.2929 11.2929C10.1054 11.4804 10 11.7348 10 12C10 12.2652 10.1054 12.5196 10.2929 12.7071C10.4804 12.8946 10.7348 13 11 13H13C13.2652 13 13.5196 12.8946 13.7071 12.7071C13.8946 12.5196 14 12.2652 14 12C14 11.7348 13.8946 11.4804 13.7071 11.2929C13.5196 11.1054 13.2652 11 13 11Z" fill="#BCBDBD"/>
<path d="M13 14H11C10.7348 14 10.4804 14.1054 10.2929 14.2929C10.1054 14.4804 10 14.7348 10 15C10 15.2652 10.1054 15.5196 10.2929 15.7071C10.4804 15.8946 10.7348 16 11 16H13C13.2652 16 13.5196 15.8946 13.7071 15.7071C13.8946 15.5196 14 15.2652 14 15C14 14.7348 13.8946 14.4804 13.7071 14.2929C13.5196 14.1054 13.2652 14 13 14Z" fill="#BCBDBD"/>
<path d="M8 17H7C6.73478 17 6.48043 17.1054 6.29289 17.2929C6.10536 17.4804 6 17.7348 6 18C6 18.2652 6.10536 18.5196 6.29289 18.7071C6.48043 18.8946 6.73478 19 7 19H8C8.26522 19 8.51957 18.8946 8.70711 18.7071C8.89464 18.5196 9 18.2652 9 18C9 17.7348 8.89464 17.4804 8.70711 17.2929C8.51957 17.1054 8.26522 17 8 17Z" fill="#BCBDBD"/>
<path d="M13 17H11C10.7348 17 10.4804 17.1054 10.2929 17.2929C10.1054 17.4804 10 17.7348 10 18C10 18.2652 10.1054 18.5196 10.2929 18.7071C10.4804 18.8946 10.7348 19 11 19H13C13.2652 19 13.5196 18.8946 13.7071 18.7071C13.8946 18.5196 14 18.2652 14 18C14 17.7348 13.8946 17.4804 13.7071 17.2929C13.5196 17.1054 13.2652 17 13 17Z" fill="#BCBDBD"/>
<path d="M17 11H16C15.7348 11 15.4804 11.1054 15.2929 11.2929C15.1054 11.4804 15 11.7348 15 12C15 12.2652 15.1054 12.5196 15.2929 12.7071C15.4804 12.8946 15.7348 13 16 13H17C17.2652 13 17.5196 12.8946 17.7071 12.7071C17.8946 12.5196 18 12.2652 18 12C18 11.7348 17.8946 11.4804 17.7071 11.2929C17.5196 11.1054 17.2652 11 17 11Z" fill="#BCBDBD"/>
<path d="M18 5H6C5.73478 5 5.48043 5.10536 5.29289 5.29289C5.10536 5.48043 5 5.73478 5 6V9C5 9.26522 5.10536 9.51957 5.29289 9.70711C5.48043 9.89464 5.73478 10 6 10H18C18.2652 10 18.5196 9.89464 18.7071 9.70711C18.8946 9.51957 19 9.26522 19 9V6C19 5.73478 18.8946 5.48043 18.7071 5.29289C18.5196 5.10536 18.2652 5 18 5ZM17 8H7V7H17V8Z" fill="#BCBDBD"/>
<path d="M17 14H16C15.4477 14 15 14.4477 15 15V18C15 18.5523 15.4477 19 16 19H17C17.5523 19 18 18.5523 18 18V15C18 14.4477 17.5523 14 17 14Z" fill="#BCBDBD"/>
</svg>
