<svg width="24" height="24" viewBox="0 0 24 24" fill="none" xmlns="http://www.w3.org/2000/svg">
<g clip-path="url(#clip0_5359_33)">
<path d="M5.90625 15.6562C4.6875 15.6562 3.70312 16.6406 3.70312 17.8594C3.70312 19.0781 4.6875 20.0625 5.90625 20.0625C7.125 20.0625 8.10938 19.0781 8.10938 17.8594C8.10938 16.6406 7.125 15.6562 5.90625 15.6562ZM5.90625 18.6937C5.44687 18.6937 5.0625 18.3094 5.0625 17.85C5.0625 17.3906 5.44687 17.0062 5.90625 17.0062C6.36563 17.0062 6.75 17.3906 6.75 17.85C6.75 18.3187 6.375 18.6937 5.90625 18.6937ZM19.7625 15.5625C18.5438 15.5625 17.5594 16.5469 17.5594 17.7656C17.5594 18.9844 18.5438 19.9688 19.7625 19.9688C20.9813 19.9688 21.9656 18.9844 21.9656 17.7656C21.9656 16.5469 20.9813 15.5625 19.7625 15.5625ZM19.7625 18.6C19.3031 18.6 18.9188 18.2156 18.9188 17.7562C18.9188 17.2969 19.3031 16.9125 19.7625 16.9125C20.2219 16.9125 20.6063 17.2969 20.6063 17.7562C20.6063 18.225 20.2313 18.6 19.7625 18.6ZM-0.046875 16.6031C-0.046875 17.0344 0.3 17.3719 0.721875 17.3719H2.84062C2.925 17.3719 3 17.3063 3.01875 17.2313C3.2625 15.8531 4.4625 14.8969 5.90625 14.8969C7.35 14.8969 8.55938 15.8531 8.79375 17.2313C8.8125 17.3156 8.87812 17.3719 8.97187 17.3719H9.28125H12.1781V13.9688H-0.046875V16.6031ZM23.775 15.7969H23.3063V13.7344C23.3063 13.0312 22.7344 12.4594 22.0219 12.4594H19.7438C19.6969 12.4594 19.65 12.4313 19.6125 12.4031L16.05 8.93437C15.8906 8.775 15.6656 8.68125 15.4313 8.67188H12.8531V17.3719H16.6875C16.7719 17.3719 16.8469 17.3063 16.8656 17.2313C17.1094 15.8531 18.3094 14.8031 19.7531 14.8031C21.1969 14.8031 22.4062 15.8531 22.6406 17.2313C22.6594 17.3156 22.725 17.3719 22.8187 17.3719H23.1188C23.5781 17.3719 23.9344 17.0063 23.9344 16.5563V15.9656C23.9531 15.8813 23.8688 15.7969 23.775 15.7969ZM17.9156 12.4688H14.0344C13.9406 12.4688 13.8563 12.3844 13.8563 12.2906V9.81562C13.8563 9.72187 13.9406 9.6375 14.0344 9.6375H15.3375C15.3844 9.6375 15.4313 9.66563 15.4781 9.69375L18.0563 12.1594C18.1406 12.2812 18.0656 12.4688 17.9156 12.4688Z" fill="#BCBDBD"/>
<path d="M5.41877 12.703H1.60315V8.8874H3.07502V10.1062H3.9469V8.8874H5.41877V12.703ZM10.3969 12.703H6.59065V8.8874H8.06252V10.1062H8.9344V8.8874H10.4063V12.703H10.3969ZM7.94065 7.71553H4.12502V3.8999H5.5969V5.11865H6.46877V3.8999H7.94065V7.71553Z" fill="#BCBDBD"/>
</g>
<defs>
<clipPath id="clip0_5359_33">
<rect width="24" height="24" fill="white"/>
</clipPath>
</defs>
</svg>
