<?xml version="1.0" encoding="utf-8"?>
<!-- Generator: Adobe Illustrator 26.0.3, SVG Export Plug-In . SVG Version: 6.00 Build 0)  -->
<svg version="1.0" id="katman_1" xmlns="http://www.w3.org/2000/svg" xmlns:xlink="http://www.w3.org/1999/xlink" x="0px" y="0px"
	 viewBox="0 0 600 450" style="enable-background:new 0 0 600 450;" xml:space="preserve">
<style type="text/css">
	.st0{clip-path:url(#SVGID_00000129183116469430482500000011347637780554775953_);}
</style>
<g>
	<g>
		<defs>
			<rect id="SVGID_1_" x="68" y="150.2" width="464" height="149.6"/>
		</defs>
		<clipPath id="SVGID_00000010289995046163217990000013668122767745078694_">
			<use xlink:href="#SVGID_1_"  style="overflow:visible;"/>
		</clipPath>
		<path style="clip-path:url(#SVGID_00000010289995046163217990000013668122767745078694_);" d="M402.1,299.2
			c-1.9,0-3.7-0.8-5.1-2.1c-1.4-1.4-2.1-3.2-2.1-5.1V157.4c0-1.9,0.8-3.8,2.1-5.1c1.4-1.4,3.2-2.1,5.1-2.1c1.9,0,3.7,0.8,5.1,2.1
			c1.4,1.4,2.1,3.2,2.1,5.1V292c0,1.9-0.8,3.7-2.1,5.1C405.8,298.4,404,299.2,402.1,299.2L402.1,299.2z M525.4,280.3
			c1.2-1.5,1.8-3.3,1.7-5.2c-0.2-1.9-1.1-3.7-2.5-4.9c-1.5-1.2-3.3-1.8-5.3-1.7c-1.9,0.2-3.7,1.1-4.9,2.5
			c-7.5,8.8-18.6,13.8-30.6,13.8c-19.9,0-36-16.2-36-36c0-19.9,16.2-36,36-36c16.1,0,29.6,11.6,32.6,26.9h-44.1
			c-1.9,0-3.7,0.8-5.1,2.1c-1.4,1.4-2.1,3.2-2.1,5.1c0,1.9,0.8,3.7,2.1,5.1c1.4,1.4,3.2,2.1,5.1,2.1h51.9c1.9,0,3.7-0.8,5.1-2.1
			c1.4-1.4,2.1-3.2,2.1-5.1v-1c0-26.2-21.3-47.6-47.6-47.6c-27.8,0-50.5,22.6-50.5,50.5c0,27.8,22.6,50.5,50.5,50.5
			C500,299.2,515.2,292.3,525.4,280.3L525.4,280.3z M370.8,292v-46.1c0-26.2-21.3-47.6-47.6-47.6c-27.8,0-50.5,22.6-50.5,50.5
			s22.6,50.5,50.5,50.5c1.9,0,3.7-0.8,5.1-2.1c1.4-1.4,2.1-3.2,2.1-5.1s-0.8-3.7-2.1-5.1c-1.4-1.4-3.2-2.1-5.1-2.1
			c-19.9,0-36-16.2-36-36c0-19.9,16.2-36,36-36c18.3,0,33.2,14.9,33.2,33.2V292c0,1.9,0.8,3.7,2.1,5.1c1.4,1.4,3.2,2.1,5.1,2.1
			C367.6,299.2,370.8,296,370.8,292L370.8,292z M152.6,270.4c0-7-2.6-16.6-14.9-22.4c-7.4-3.5-16.7-4.9-25.6-6.3
			c-21-3.2-28.5-5.9-28.5-14.6c0-9.5,13.1-14.4,26.1-14.4c8.2,0,19.9,1.6,29.5,9.5c3.1,2.5,7.6,2.1,10.1-1c2.5-3.1,2.1-7.6-1-10.2
			c-12.8-10.6-28.1-12.8-38.6-12.8c-27.8,0-40.5,14.9-40.5,28.8c0,7.1,2.6,16.7,15,22.6c7.4,3.5,16.7,4.9,25.7,6.3
			c20.9,3.2,28.3,5.9,28.3,14.4c0,8.6-10.3,14.4-25.6,14.4c-15.7,0-27.6-6.4-33.4-10.2c-3.3-2.2-7.8-1.3-10,2
			c-1.1,1.6-1.4,3.5-1.1,5.4c0.4,1.9,1.5,3.5,3.1,4.6c12.2,8.1,26.9,12.6,41.3,12.6C140.2,299.2,152.6,284.7,152.6,270.4
			L152.6,270.4z M257.1,277.9c2.2-3.3,1.3-7.8-2-10c-3.3-2.2-7.8-1.3-10,2c-6.2,9.3-16.5,14.8-27.6,14.8c-19.9,0-36-16.2-36-36
			c0-19.9,16.2-36,36-36c11.1,0,21.5,5.5,27.6,14.8c1.1,1.6,2.7,2.7,4.6,3.1c1.9,0.4,3.8,0,5.4-1.1c1.6-1.1,2.7-2.7,3.1-4.6
			c0.4-1.9,0-3.8-1.1-5.4c-8.9-13.3-23.7-21.3-39.6-21.3c-27.8,0-50.5,22.6-50.5,50.5s22.6,50.5,50.5,50.5
			C233.4,299.2,248.3,291.2,257.1,277.9L257.1,277.9z M257.1,277.9"/>
	</g>
</g>
</svg>
